<svg id="filled_outline" data-name="filled outline" xmlns="http://www.w3.org/2000/svg" viewBox="0 0 340 340"><rect x="10" y="31.4" width="320" height="200.769" rx="14.494" style="fill:#8095aa"/><rect x="34.993" y="50.76" width="270.015" height="149.143" style="fill:#edebf4"/><rect x="47.331" y="62.266" width="245.338" height="126.131" style="fill:#fff"/><rect x="149.682" y="232.17" width="40.636" height="60" style="fill:#4a617c"/><path d="M232.94,308.6H107.06v-3.628a12.8,12.8,0,0,1,12.8-12.8H220.138a12.8,12.8,0,0,1,12.8,12.8Z" style="fill:#4a617c"/><path d="M210.4,114.163a40.4,40.4,0,0,1-21.715,35.83H151.312c-36.9-19.4-23.637-75.914,18.689-76.233A40.4,40.4,0,0,1,210.4,114.163Z" style="fill:#c7e2ff"/><path d="M183.289,129.084c-4.178-2.028-5.788-6.43-5.395-10.856,11.332-7.567,5.944-25.766-7.894-25.732-13.838-.034-19.226,18.167-7.894,25.732.822,13.059-10.355,8.494-10.79,19.59v12.166a40.6,40.6,0,0,0,37.366,0c0-2,0-10.018,0-12.166A9.768,9.768,0,0,0,183.289,129.084Z" style="fill:#fff"/><path d="M315.506,27.4H24.494A18.516,18.516,0,0,0,6,45.9V217.676A18.515,18.515,0,0,0,24.494,236.17H145.683v52H119.861a16.821,16.821,0,0,0-16.8,16.8V308.6a4,4,0,0,0,4,4H232.939a4,4,0,0,0,4-4v-3.628a16.821,16.821,0,0,0-16.8-16.8H194.317v-52H315.506A18.515,18.515,0,0,0,334,217.676V45.9A18.516,18.516,0,0,0,315.506,27.4ZM220.139,296.17a8.812,8.812,0,0,1,8.793,8.43H111.068a8.812,8.812,0,0,1,8.793-8.43h29.822C166.861,296.172,203.181,296.169,220.139,296.17ZM326,217.676a10.506,10.506,0,0,1-10.494,10.494H168.188a4,4,0,0,0,0,8h18.129v52H153.683v-56a4,4,0,0,0-4-4H24.494A10.506,10.506,0,0,1,14,217.676V45.9A10.507,10.507,0,0,1,24.494,35.4H315.506A10.507,10.507,0,0,1,326,45.9Z" style="fill:#2f313f"/><path d="M305.008,46.76H34.992a4,4,0,0,0-4,4V199.9a4,4,0,0,0,4,4H305.008a4,4,0,0,0,4-4V50.76A4,4,0,0,0,305.008,46.76Zm-4,149.143H38.992V54.76H301.008Z" style="fill:#2f313f"/><path d="M149.574,153.569a44.125,44.125,0,0,0,20.426,5,4,4,0,0,0,0-8,36.182,36.182,0,0,1-14.684-3.1v-9.644a5.737,5.737,0,0,1,3.186-5.157c5.485-2.645,8.112-8.522,7.6-14.433a4,4,0,0,0-1.753-3.31A10.076,10.076,0,0,1,170,96.5c9.856,0,13.807,12.918,5.647,18.422a4,4,0,0,0-1.753,3.31c-.508,5.914,2.121,11.785,7.6,14.433a5.737,5.737,0,0,1,3.186,5.157v12.166a4.054,4.054,0,0,0,5.857,3.554C231.354,131.951,216.189,70.081,170,69.76,123.448,70.172,108.9,132.291,149.574,153.569ZM170,77.76c34.182-.137,49.416,43.865,22.684,64.869v-4.811a13.692,13.692,0,0,0-7.6-12.31,5.748,5.748,0,0,1-3.186-5.323c12.5-10.777,4.658-31.77-11.894-31.689-16.552-.081-24.389,20.915-11.894,31.689a5.75,5.75,0,0,1-3.186,5.323,13.692,13.692,0,0,0-7.6,12.31V142.6C120.676,121.521,135.609,77.8,170,77.76Z" style="fill:#2f313f"/><path d="M170,171.089c-5.25.1-5.255,7.911,0,8C175.257,179,175.249,171.192,170,171.089Z" style="fill:#2f313f"/><path d="M189.22,171.169c-4.672.958-3.989,7.907.78,7.92C195.785,178.86,194.945,170.283,189.22,171.169Z" style="fill:#2f313f"/><path d="M297.7,214.729c-1.579-3.992-7.76-2.757-7.69,1.53C290.367,222.6,299.8,220.716,297.7,214.729Z" style="fill:#2f313f"/><path d="M152.22,171.77c-3.983-2.634-8.4,2.757-5.05,6.15C151.424,181.856,156.91,175.162,152.22,171.77Z" style="fill:#2f313f"/></svg>